<svg 
          width="40.48212432861328" 
          height="31.576053619384766" fill="none" 
          xmlns="http://www.w3.org/2000/svg">
          <path d="M 0 28.067603217230904 L 0 10.52535120646159 C 0 8.587686621435726 1.8124453662950604 7.016900804307726 4.0482124328613285 7.016900804307726 L 5.06026554107666 7.016900804307726 C 6.334460615924968 7.016900804307726 7.534310105809016 6.496965688533717 8.298835294331912 5.613520308854277 L 12.792350670133603 0.42101406498805877 C 13.021702149141571 0.15598572613471146 13.38167019780978 0 13.763922657796138 0 L 26.718201670817145 0 C 27.100555322746732 0 27.46044241786036 0.15598572613471146 27.689773658479684 0.42101406498805877 L 32.183288069112315 5.613520308854277 C 32.94779298908503 6.496965688533717 34.147683981238494 7.016900804307726 35.42185878753662 7.016900804307726 L 36.433911895751955 7.016900804307726 C 38.669739526676494 7.016900804307726 40.48212432861328 8.587686621435726 40.48212432861328 10.52535120646159 L 40.48212432861328 28.067603217230904 C 40.48212432861328 30.00532029136169 38.669739526676494 31.576053619384766 36.433911895751955 31.576053619384766 L 4.0482124328613285 31.576053619384766 C 1.8124453662950604 31.576053619384766 0 30.00532029136169 0 28.067603217230904 Z" fill="rgb(234.81250405311584,222.42679506540298,172.19583123922348)"/>
        </svg>